<svg width="31" height="31" viewBox="0 0 31 31" fill="none" xmlns="http://www.w3.org/2000/svg">
<path d="M12.0784 2V4.87954M17.8375 2V4.87954M20.717 10.6386C21.0989 10.6386 21.4651 10.7903 21.7351 11.0603C22.0051 11.3303 22.1568 11.6965 22.1568 12.0784V23.5966C22.1568 25.124 21.55 26.5888 20.47 27.6688C19.39 28.7489 17.9251 29.3556 16.3977 29.3556H7.75908C6.23168 29.3556 4.76683 28.7489 3.6868 27.6688C2.60676 26.5888 2 25.124 2 23.5966V12.0784C2 11.6965 2.15169 11.3303 2.4217 11.0603C2.69171 10.7903 3.05792 10.6386 3.43977 10.6386H23.5966C25.124 10.6386 26.5888 11.2454 27.6688 12.3254C28.7489 13.4055 29.3556 14.8703 29.3556 16.3977C29.3556 17.9251 28.7489 19.39 27.6688 20.47C26.5888 21.55 25.124 22.1568 23.5966 22.1568H22.1568M6.31931 2V4.87954" stroke="#7D7D7D" stroke-width="2.87954" stroke-linecap="round" stroke-linejoin="round"/>
</svg>
