<svg width="30" height="30" viewBox="0 0 30 30" fill="none" xmlns="http://www.w3.org/2000/svg">
<path d="M20.512 9.488L18.1668 16.5223C18.0392 16.9053 17.8241 17.2532 17.5387 17.5387C17.2532 17.8241 16.9053 18.0392 16.5223 18.1668L9.488 20.512L11.8332 13.4777C11.9608 13.0947 12.1759 12.7468 12.4613 12.4613C12.7468 12.1759 13.0947 11.9608 13.4777 11.8332L20.512 9.488Z" stroke="#7D7D7D" stroke-width="2.87954" stroke-linecap="round" stroke-linejoin="round"/>
<path d="M15 28C22.1797 28 28 22.1797 28 15C28 7.8203 22.1797 2 15 2C7.8203 2 2 7.8203 2 15C2 22.1797 7.8203 28 15 28Z" stroke="#7D7D7D" stroke-width="2.87954" stroke-linecap="round" stroke-linejoin="round"/>
</svg>
