<svg width="24" height="24" viewBox="0 0 24 24" fill="none"
    xmlns="http://www.w3.org/2000/svg">
    <rect width="24" height="24" fill="none"/>
    <path d="M23.2038 10.9006C23.2038 10.7761 23.1359 10.6516 23.1019 10.5271C23.0496 10.3075 22.9815 10.0919 22.8982 9.88207C22.8416 9.74627 22.7624 9.61047 22.6945 9.46335C22.6266 9.31622 22.5248 9.12384 22.4229 8.9654C22.3211 8.80696 22.1853 8.72774 22.1853 8.63721C22.1853 8.54667 21.9589 8.35428 21.8344 8.21848C21.7099 8.08267 21.5968 7.99214 21.4723 7.87897L21.0536 7.50551L20.6462 7.2339C20.4862 7.13602 20.3199 7.04906 20.1482 6.97361L19.7068 6.7699C19.522 6.70144 19.333 6.64474 19.141 6.60015C18.9889 6.5554 18.8338 6.52137 18.677 6.49829H18.4733C18.0374 5.13942 17.1844 3.95243 16.0355 3.10589C14.8866 2.25936 13.5002 1.79632 12.0732 1.78254C10.6462 1.76876 9.25111 2.20494 8.08608 3.02912C6.92105 3.85331 6.04532 5.0236 5.58324 6.37381H5.37953C5.22268 6.39688 5.06763 6.43092 4.91554 6.47566C4.72353 6.52026 4.53454 6.57695 4.34969 6.64541L3.90833 6.84912C3.73667 6.92458 3.57031 7.01154 3.41038 7.10941L3.00297 7.50551L2.58424 7.85633C2.45975 7.9695 2.33526 8.07136 2.22209 8.19584C2.10892 8.32033 1.98444 8.47877 1.87127 8.61457C1.7581 8.75037 1.66756 8.87486 1.57703 9.02198C1.48649 9.1691 1.39595 9.35018 1.30542 9.51993C1.21488 9.68969 1.1583 9.80285 1.10171 9.93866C1.01847 10.1485 0.95039 10.3641 0.898006 10.5837C0.898006 10.7082 0.818787 10.8327 0.796153 10.9572C0.725712 11.3114 0.687831 11.6712 0.682983 12.0323C0.688289 12.3778 0.722357 12.7223 0.784836 13.0621C0.784836 13.1753 0.841421 13.2772 0.864055 13.3903C0.919992 13.6127 0.987994 13.8318 1.06776 14.0467L1.20356 14.3749C1.30319 14.5932 1.41658 14.8048 1.54307 15.0087L1.70151 15.2576C1.71779 15.2894 1.73672 15.3196 1.7581 15.3482L1.81468 15.4274C2.34175 16.1302 3.02521 16.7006 3.81092 17.0934C4.59663 17.4863 5.46302 17.6908 6.34148 17.6908C6.344 17.0915 6.58413 16.5176 7.00918 16.0951C7.4317 15.67 8.00555 15.4299 8.60488 15.4274C9.00298 15.4237 9.39446 15.5294 9.73657 15.733V12.0323C9.73657 11.432 9.97504 10.8563 10.3995 10.4318C10.824 10.0074 11.3997 9.7689 12 9.7689C12.6003 9.7689 13.176 10.0074 13.6004 10.4318C14.0249 10.8563 14.2634 11.432 14.2634 12.0323V15.8461C14.6072 15.6467 14.9975 15.5413 15.3951 15.5406C16.0082 15.5463 16.5941 15.7945 17.0247 16.2309C17.4057 16.6248 17.6309 17.1435 17.6585 17.6908C18.5369 17.6908 19.4033 17.4863 20.189 17.0934C20.9747 16.7006 21.6582 16.1302 22.1853 15.4274L22.2418 15.3708C22.2632 15.3423 22.2822 15.312 22.2984 15.2803L22.4569 15.0313C22.5834 14.8275 22.6968 14.6158 22.7964 14.3976L22.9322 14.0694C23.0119 13.8544 23.08 13.6353 23.1359 13.413C23.1359 13.2998 23.1925 13.198 23.2151 13.0848C23.2789 12.7375 23.3129 12.3854 23.317 12.0323C23.3157 11.6523 23.2778 11.2733 23.2038 10.9006Z" fill="#131313"/>
    <path d="M14.6146 16.9892L13.1321 18.4151V12.0323C13.1321 11.7322 13.0129 11.4443 12.8007 11.2321C12.5884 11.0199 12.3006 10.9006 12.0004 10.9006C11.7003 10.9006 11.4124 11.0199 11.2002 11.2321C10.988 11.4443 10.8687 11.7322 10.8687 12.0323V18.3585L9.40883 16.8873C9.30331 16.7818 9.17804 16.6981 9.04018 16.641C8.90231 16.5839 8.75455 16.5545 8.60532 16.5545C8.4561 16.5545 8.30833 16.5839 8.17047 16.641C8.0326 16.6981 7.90734 16.7818 7.80182 16.8873C7.6963 16.9928 7.6126 17.1181 7.55549 17.256C7.49839 17.3938 7.46899 17.5416 7.46899 17.6908C7.46899 17.8401 7.49839 17.9878 7.55549 18.1257C7.6126 18.2635 7.6963 18.3888 7.80182 18.4943L11.1969 21.8894C11.3027 21.9943 11.4281 22.0773 11.566 22.1336C11.7038 22.1899 11.8515 22.2185 12.0004 22.2176C12.2918 22.2165 12.5715 22.103 12.7813 21.9007L16.1764 18.6188C16.2965 18.5197 16.3948 18.3969 16.4653 18.2581C16.5357 18.1193 16.5768 17.9674 16.5859 17.812C16.595 17.6565 16.5719 17.5009 16.5181 17.3548C16.4643 17.2087 16.3809 17.0753 16.2732 16.9629C16.1655 16.8505 16.0357 16.7615 15.892 16.7016C15.7484 16.6416 15.5939 16.6119 15.4382 16.6144C15.2825 16.6168 15.129 16.6514 14.9873 16.7159C14.8456 16.7804 14.7188 16.8734 14.6146 16.9892Z" fill="#131313"/>
</svg>
