<svg width="31" height="31" viewBox="0 0 31 31" fill="none" xmlns="http://www.w3.org/2000/svg">
<path d="M18.7171 18.7171L12.2829 12.2829M28.2345 28.2345L26.3579 26.3579M4.64215 4.64215L2.76548 2.76548M24.4235 28.2144C23.9208 28.7173 23.239 28.9999 22.5279 29C21.8169 29.0001 21.1349 28.7178 20.632 28.2151C20.1291 27.7124 19.8466 27.0305 19.8464 26.3195C19.8463 25.6084 20.1286 24.9264 20.6313 24.4235L18.2627 26.7935C17.7598 27.2964 17.0778 27.5789 16.3666 27.5789C15.6554 27.5789 14.9734 27.2964 14.4705 26.7935C13.9676 26.2906 13.6851 25.6086 13.6851 24.8974C13.6851 24.1862 13.9676 23.5042 14.4705 23.0013L23.0013 14.4705C23.5042 13.9676 24.1862 13.6851 24.8974 13.6851C25.6086 13.6851 26.2906 13.9676 26.7935 14.4705C27.2964 14.9734 27.5789 15.6554 27.5789 16.3666C27.5789 17.0778 27.2964 17.7598 26.7935 18.2627L24.4235 20.6313C24.9264 20.1286 25.6084 19.8463 26.3195 19.8464C27.0305 19.8466 27.7124 20.1291 28.2151 20.632C28.7178 21.1349 29.0001 21.8169 29 22.5279C28.9999 23.239 28.7173 23.9208 28.2144 24.4235L24.4235 28.2144ZM7.9987 16.5295C7.49582 17.0324 6.81377 17.3149 6.1026 17.3149C5.39142 17.3149 4.70937 17.0324 4.20649 16.5295C3.70361 16.0266 3.4211 15.3446 3.4211 14.6334C3.4211 13.9222 3.70361 13.2402 4.20649 12.7373L6.57645 10.3687C6.32745 10.6176 6.03187 10.815 5.70656 10.9497C5.38126 11.0844 5.03262 11.1536 4.68055 11.1536C3.9695 11.1535 3.28762 10.8709 2.78492 10.368C2.53601 10.119 2.33858 9.8234 2.2039 9.4981C2.06922 9.1728 1.99994 8.82416 2 8.47208C2.00013 7.76103 2.28271 7.07915 2.78559 6.57645L6.57645 2.78559C7.07915 2.28271 7.76103 2.00013 8.47208 2C8.82416 1.99994 9.1728 2.06922 9.4981 2.2039C9.8234 2.33858 10.119 2.53601 10.368 2.78492C10.617 3.03383 10.8145 3.32935 10.9493 3.6546C11.0841 3.97985 11.1535 4.32847 11.1536 4.68055C11.1536 5.03262 11.0844 5.38126 10.9497 5.70656C10.815 6.03187 10.6176 6.32745 10.3687 6.57645L12.7373 4.20649C13.2402 3.70361 13.9222 3.4211 14.6334 3.4211C15.3446 3.4211 16.0266 3.70361 16.5295 4.20649C17.0324 4.70937 17.3149 5.39142 17.3149 6.1026C17.3149 6.81377 17.0324 7.49582 16.5295 7.9987L7.9987 16.5295Z" stroke="#7D7D7D" stroke-width="2.57784" stroke-linecap="round" stroke-linejoin="round"/>
</svg>
