<svg width="24" height="24" viewBox="0 0 24 24" fill="none"
    xmlns="http://www.w3.org/2000/svg">
    <rect width="24" height="24" fill="none"/>
    <path d="M19.3351 19.2631H16.2479V14.4761C16.2479 13.3346 16.2274 11.8651 14.6423 11.8651C13.0344 11.8651 12.7884 13.1088 12.7884 14.393V19.2628H9.7012V9.41873H12.6649V10.764H12.7064C13.003 10.2619 13.4316 9.84883 13.9465 9.56881C14.4614 9.28878 15.0434 9.1523 15.6305 9.17387C18.7595 9.17387 19.3364 11.2117 19.3364 13.8628L19.3351 19.2631ZM6.21785 8.07312C5.86352 8.07318 5.51712 7.96921 5.22247 7.77434C4.92782 7.57948 4.69816 7.30248 4.56251 6.97837C4.42685 6.65426 4.3913 6.2976 4.46036 5.95349C4.52943 5.60937 4.7 5.29327 4.95051 5.04514C5.20101 4.79702 5.5202 4.62801 5.86771 4.55951C6.21522 4.491 6.57543 4.52606 6.90282 4.66027C7.2302 4.79447 7.51004 5.02178 7.70694 5.31346C7.90385 5.60514 8.00899 5.94808 8.00905 6.29892C8.0091 6.53187 7.96279 6.76255 7.8728 6.97778C7.7828 7.19301 7.65089 7.38859 7.48456 7.55334C7.31823 7.71809 7.12075 7.84878 6.90341 7.93797C6.68606 8.02715 6.45311 8.07308 6.21785 8.07312ZM7.76143 19.2631H4.67105V9.41873H7.76143V19.2631ZM20.8742 1.68671H3.11975C2.71678 1.68221 2.32846 1.8363 2.04017 2.11512C1.75188 2.39395 1.58719 2.77469 1.58228 3.1737V20.8262C1.58703 21.2254 1.75161 21.6064 2.0399 21.8855C2.32818 22.1646 2.71658 22.319 3.11975 22.3148H20.8742C21.2782 22.3198 21.6676 22.1658 21.9571 21.8867C22.2465 21.6076 22.4122 21.2262 22.4178 20.8262V3.17242C22.412 2.77263 22.2462 2.39145 21.9568 2.11263C21.6673 1.83381 21.278 1.68016 20.8742 1.68543" fill="#131313"/>
</svg>
