<svg width="24" height="24" viewBox="0 0 24 24" fill="none"
    xmlns="http://www.w3.org/2000/svg">
    <rect width="24" height="24" fill="none"/>
    <path d="M13.2813 12.0002C13.2813 15.1369 10.7559 17.6796 7.64077 17.6796C4.52564 17.6796 2 15.1369 2 12.0002C2 8.86351 4.52545 6.32056 7.64077 6.32056C10.7561 6.32056 13.2813 8.86351 13.2813 12.0002Z" fill="#131313"/>
    <path d="M19.4692 12C19.4692 14.9525 18.2065 17.347 16.6488 17.347C15.0912 17.347 13.8284 14.9525 13.8284 12C13.8284 9.04751 15.091 6.65308 16.6486 6.65308C18.2063 6.65308 19.469 9.04674 19.469 12" fill="#131313"/>
    <path d="M22 12.0002C22 14.6449 21.5559 16.7902 21.008 16.7902C20.4601 16.7902 20.0163 14.6455 20.0163 12.0002C20.0163 9.35492 20.4603 7.21021 21.008 7.21021C21.5557 7.21021 22 9.35473 22 12.0002Z" fill="#131313"/>
</svg>
