<svg width="100" height="100" viewBox="0 0 100 100" fill="none"
    xmlns="http://www.w3.org/2000/svg">
    <g clip-path="url(#clip0_269_13)">
        <path d="M97.4792 29.5045C95.4458 28.642 93.0916 29.4962 92.1041 31.4712C91.1708 33.3378 89.925 34.4837 88.2958 34.9628C85.7458 35.7253 82.7 34.7462 81.275 33.9087C79.3958 32.8045 77.2167 31.1295 74.9125 29.3587C67.5583 23.7003 58.4083 16.667 45.8333 16.667C35.775 16.667 30.6083 21.8295 22.0542 30.3878C20.425 32.017 20.4125 34.667 22.0417 36.292C23.625 37.8837 26.1667 37.9337 27.8 36.417C27.8417 36.3795 27.8833 36.3378 27.925 36.3003C30.225 34.5253 44.7167 36.2503 51.05 41.2837C60.4625 48.7628 67.2583 54.167 75 54.167C86.0792 54.167 95.3292 46.9128 99.75 34.7587C100.504 32.6837 99.5083 30.3795 97.4792 29.5045ZM76.6458 58.6712C74.6125 57.8087 72.2583 58.6628 71.2708 60.6378C70.3375 62.5045 69.0917 63.6503 67.4625 64.1295C64.9125 64.8795 61.8666 63.9128 60.4416 63.0753C58.5625 61.9712 56.3833 60.2962 54.0792 58.5253C46.725 52.867 37.575 45.8337 25 45.8337C14.9417 45.8337 9.77498 50.9962 1.22082 59.5545C-0.408348 61.1837 -0.420848 63.8337 1.20832 65.4587C2.79165 67.0503 5.33749 67.1045 6.97082 65.5837C7.01248 65.5462 7.05415 65.5045 7.09582 65.467C9.39165 63.692 23.8916 65.417 30.2208 70.4503C39.6291 77.9295 46.425 83.3337 54.1667 83.3337C65.2458 83.3337 74.4958 76.0795 78.9167 63.9253C79.6708 61.8503 78.675 59.5462 76.6458 58.6712Z" fill="white"/>
    </g>
    <defs>
        <clipPath id="clip0_269_13">
            <rect width="100" height="100" fill="white"/>
        </clipPath>
    </defs>
</svg>
