<svg width="100" height="100" viewBox="0 0 100 100" fill="none"
    xmlns="http://www.w3.org/2000/svg">
    <path d="M90 8H10C8.894 8 8 8.896 8 10V90C8 91.104 8.894 92 10 92H90C91.106 92 92 91.104 92 90V10C92 8.896 91.106 8 90 8ZM58 52.89H48V84H40V52.89H30V46H58V52.89ZM60.242 82.224V73.908C60.242 73.908 64.784 77.332 70.234 77.332C75.684 77.332 75.474 73.768 75.474 73.28C75.474 68.108 60.032 68.108 60.032 56.65C60.032 41.068 82.532 47.216 82.532 47.216L82.252 54.624C82.252 54.624 78.478 52.108 74.216 52.108C69.954 52.108 68.416 54.134 68.416 56.3C68.416 61.89 83.998 61.332 83.998 72.582C84 89.91 60.242 82.224 60.242 82.224Z" fill="white"/>
</svg>
