<svg width="100" height="100" viewBox="0 0 100 100" fill="none"
    xmlns="http://www.w3.org/2000/svg">
    <path d="M13.0208 4.16699C9.24584 4.16699 6.26277 6.16908 4.85027 9.63574C4.40443 10.7066 4.17898 11.8422 4.17481 13.013C4.17064 16.8922 6.67058 20.0408 8.17058 21.9242C8.43308 22.2533 8.66928 22.5465 8.91928 22.9007L9.59473 23.7959C10.2656 24.6751 11.0295 25.6722 11.2712 26.1722C11.3503 26.4014 11.455 26.8032 11.5967 27.3115C12.2509 29.6657 13.4717 34.0409 15.4134 37.3701C16.1967 38.7118 17.2992 40.3981 18.0908 41.5856C17.5617 44.2356 16.6667 49.117 16.6667 52.0837C16.6667 57.292 17.7467 61.4748 20.1009 65.2998C20.9717 66.6665 23.6292 70.8337 28.125 70.8337C29.7208 70.8337 32.3725 70.2103 33.0892 66.252C36.2767 70.3645 41.6667 75.5212 50 79.167C50 79.167 34.3783 60.9397 31.6325 49.5772C31.6325 49.5772 28.6443 52.6061 26.1068 58.7894C25.3484 56.8811 25 54.7295 25 52.0837C25 49.4712 26.1492 43.6311 26.5951 41.6019L26.9857 39.8359L25.9603 38.3467C25.9436 38.3175 23.8447 35.2874 22.6156 33.179C21.2156 30.779 20.1831 27.0652 19.6289 25.0736C19.3581 24.1027 19.1453 23.4001 18.9453 22.9251C18.2162 21.346 17.1484 19.959 16.2109 18.734L15.6901 18.0423C15.4276 17.6632 15.0808 17.2238 14.6891 16.7321C13.9266 15.7738 12.5072 13.988 12.5488 12.8421L13.0127 12.5166L13.0208 12.5003C16.3333 12.5003 20.6003 14.8518 22.2087 15.7393C22.7337 16.0268 23.1194 16.2254 23.3236 16.3171L24.0479 16.6344L25.472 16.6833C27.3345 16.7249 32.9954 16.8574 36.9954 18.4574C44.2913 21.374 48.3251 24.2936 52.4251 29.6227C62.1085 42.2144 65.6812 58.5211 65.7145 58.6836L66.2354 61.0355L68.514 61.776C68.5932 61.8052 74.9705 63.9363 80.9163 69.5072C73.4372 71.3572 70.8333 75.0003 70.8333 75.0003C70.8333 75.0003 72.8167 78.867 82.2917 84.8962C88.0208 88.542 91.1458 91.1462 95.8333 95.8337C95.8333 95.8337 91.1487 85.4162 84.6029 77.1162C89.5862 75.5204 95.7113 74.6911 95.7113 74.6911L91.9189 69.4339C85.6773 60.7798 77.3069 56.4122 73.3236 54.7122C71.9402 49.4372 67.7624 35.8946 59.0332 24.5446C54.0374 18.0488 48.7212 14.1641 40.0879 10.71C34.9754 8.66829 28.828 8.42474 26.0905 8.35807C23.6947 7.04141 18.3708 4.16699 13.0208 4.16699ZM29.9479 20.8337C29.9479 20.8337 28.125 20.8337 26.0417 21.3545L31.7708 29.1589C33.3333 27.0839 33.3333 24.6585 33.3333 24.6585C33.3333 24.6585 32.2938 21.8753 29.9479 20.8337Z" fill="white"/>
</svg>
