<svg width="100" height="100" viewBox="0 0 100 100" fill="none"
    xmlns="http://www.w3.org/2000/svg">
    <g clip-path="url(#clip0_269_27)">
        <path d="M56.375 -0.0078125C61.875 12.7188 36.6406 20.5781 34.3047 31.1875C32.1484 40.9219 49.2813 52.2422 49.2891 52.2422C46.6875 48.2109 44.8047 44.8828 42.1953 38.6094C37.7813 28 69.0625 18.4062 56.375 -0.0078125ZM73.1016 17.625C73.1016 17.625 51.0078 19.0234 49.8828 33.1641C49.3828 39.4609 55.6875 42.8203 55.875 47.4062C56.0156 51.1406 52.1016 54.2578 52.1016 54.2578C52.1016 54.2578 59.2031 52.9219 61.4297 47.2109C63.8906 40.875 56.6563 36.5469 57.3828 31.4766C58.0859 26.625 73.1016 17.625 73.1016 17.625ZM78.4609 50.2891C76.1484 50.1875 73.5781 50.9531 71.25 52.625C75.8125 51.6484 79.6719 54.4375 79.6719 57.6562C79.6719 64.9062 69.1953 71.7578 69.1953 71.7578C69.1953 71.7578 85.4141 69.9062 85.4141 58C85.4141 53.0781 82.3047 50.4688 78.4609 50.2891ZM38.3672 50.3047C38.3672 50.3047 18.125 50.0313 18.125 55.7578C18.125 61.7422 44.6328 62.1641 63.5625 58.4766C63.5625 58.4766 68.6172 55.0156 69.9609 53.7266C57.5547 56.2578 29.2422 56.5938 29.2422 54.4062C29.2422 52.3828 38.3672 50.3047 38.3672 50.3047ZM33.4766 61.4453C30.375 61.4453 25.7422 63.8438 25.7422 66.1562C25.7422 70.8047 49.125 74.3906 66.4375 67.5938L60.4453 63.9219C48.7109 67.6797 27.0781 66.4766 33.4766 61.4453ZM36.3594 71.8438C32.1016 71.8438 29.3438 74.4688 29.3438 76.4062C29.3438 82.375 54.7578 82.9766 64.8281 76.9062L58.4297 72.8359C50.9062 76.0156 32.0156 76.4453 36.3594 71.8438ZM22.1797 77.25C15.2422 77.1094 10.7344 80.2266 10.7344 82.8125C10.7266 96.5625 81.7812 95.8984 81.7812 81.8438C81.7812 79.5156 79.0313 78.4062 78.0391 77.875C83.8438 91.3125 19.9375 90.2734 19.9375 82.3438C19.9375 80.5391 24.625 78.7656 28.9844 79.6172L25.2891 77.5156C24.2031 77.3516 23.1641 77.2656 22.1797 77.25ZM89.2734 86.5C78.4687 96.7344 51.0938 100.469 23.5625 94.1484C51.0859 105.406 89.1328 99.0703 89.2734 86.5Z" fill="white"/>
    </g>
    <defs>
        <clipPath id="clip0_269_27">
            <rect width="100" height="100" fill="white"/>
        </clipPath>
    </defs>
</svg>
