<svg width="100" height="100" viewBox="0 0 100 100" fill="none"
    xmlns="http://www.w3.org/2000/svg">
    <path fill-rule="evenodd" clip-rule="evenodd" d="M69.1094 7.96831C67.55 7.91587 65.9178 8.18774 64.2812 8.71831C61.0082 9.77944 57.5784 11.8473 54.0586 14.7105C52.6792 15.8326 51.2872 17.1152 49.8906 18.4761C48.5248 17.1498 47.1615 15.9016 45.8125 14.8042C42.2955 11.9434 38.875 9.87469 35.6094 8.81596C32.3438 7.75723 29.0944 7.72443 26.4258 9.26518C23.7571 10.8059 22.1612 13.6343 21.4453 16.9917C20.7294 20.3492 20.8082 24.3475 21.5273 28.8238C21.7771 30.3786 22.1333 32.0097 22.5391 33.6714C21.0142 34.1336 19.5334 34.6195 18.1602 35.1558C14.016 36.7744 10.5869 38.7109 8.08984 41.0152C5.59279 43.3195 3.98047 46.1162 3.98047 49.1871C3.98047 52.2579 5.59279 55.0507 8.08984 57.355C10.5869 59.6593 14.016 61.5997 18.1602 63.2183C19.6285 63.7918 21.2182 64.3082 22.8594 64.7964C22.2691 67.0021 21.7908 69.1425 21.4648 71.1714C20.7452 75.6513 20.6692 79.6501 21.3867 83.0152C22.1043 86.3803 23.701 89.2246 26.3828 90.773C29.0647 92.3214 32.3285 92.2833 35.6016 91.2222C38.8746 90.1611 42.3005 88.0971 45.8203 85.2339C47.187 84.1222 48.5695 82.854 49.9531 81.5074C51.344 82.8621 52.732 84.1362 54.1055 85.2535C57.6225 88.1143 61.0469 90.1791 64.3125 91.2378C67.5781 92.2966 70.8274 92.3294 73.4961 90.7886C76.1648 89.2479 77.7567 86.4195 78.4727 83.0621C79.1886 79.7046 79.1097 75.7102 78.3906 71.2339C78.0638 69.1995 77.5852 67.052 76.9922 64.8394C78.6875 64.3393 80.3275 63.809 81.8398 63.2183C85.984 61.5997 89.4131 59.6593 91.9102 57.355C94.4072 55.0507 96.0195 52.2579 96.0195 49.1871C96.0195 46.1162 94.4072 43.3195 91.9102 41.0152C89.4131 38.7109 85.984 36.7744 81.8398 35.1558C80.4469 34.6118 78.9434 34.1195 77.3945 33.6519C77.8035 31.98 78.1667 30.3372 78.418 28.773C79.1376 24.2932 79.2136 20.2904 78.4961 16.9253C77.7786 13.5602 76.178 10.7198 73.4961 9.17143C72.1552 8.39725 70.6687 8.02074 69.1094 7.96831ZM68.9258 12.0386C69.9043 12.0654 70.7391 12.2982 71.4531 12.7105C72.8812 13.535 73.9368 15.1397 74.5 17.7808C75.0632 20.4219 75.0437 23.9902 74.3789 28.1285C74.1513 29.5453 73.8208 31.0469 73.4453 32.5855C69.3543 31.6009 64.8715 30.8704 60.0938 30.441C57.6953 27.1182 55.2308 24.0911 52.7461 21.4058C54.0604 20.1229 55.3661 18.923 56.6406 17.8863C59.8921 15.2414 62.9703 13.4417 65.5391 12.6089C66.8235 12.1925 67.9473 12.0119 68.9258 12.0386ZM30.9727 12.0503C31.9568 12.0229 33.083 12.203 34.3711 12.6207C36.9473 13.4559 40.0309 15.2548 43.2852 17.9019C44.5341 18.9178 45.8106 20.0949 47.0977 21.3472C44.5946 24.0545 42.1097 27.1078 39.6953 30.4605C34.9378 30.8977 30.4732 31.6323 26.4023 32.6207C26.0297 31.0906 25.6991 29.5967 25.4727 28.1871C24.8073 24.0452 24.7907 20.4764 25.3555 17.8277C25.9203 15.179 26.9845 13.5622 28.4258 12.73C29.1464 12.314 29.9885 12.0778 30.9727 12.0503ZM49.9531 24.2847C51.5823 26.0577 53.2119 27.9979 54.8281 30.0855C53.2401 30.0193 51.6326 29.98 50 29.98C48.3349 29.98 46.6968 30.0206 45.0781 30.0894C46.6947 28.0002 48.3235 26.059 49.9531 24.2847ZM50 34.0191C52.7198 34.0191 55.3707 34.1309 57.9492 34.3199C59.7235 36.8682 61.4573 39.5717 63.1094 42.4332C64.561 44.9475 65.8747 47.4579 67.0703 49.9371C65.862 52.4491 64.5264 54.9935 63.0547 57.5425C61.7592 59.7863 60.4064 61.9175 59.0312 63.9722C56.1186 64.2157 53.1006 64.3511 50 64.3511C46.8247 64.3511 43.7389 64.2076 40.7617 63.9527C39.4095 61.9275 38.0795 59.8286 36.8047 57.6207C35.3364 55.0775 34.0072 52.5377 32.8008 50.0308C34.0122 47.5097 35.3474 44.9559 36.8242 42.398C38.4676 39.5515 40.1964 36.8637 41.9609 34.3277C44.5672 34.1344 47.2489 34.0191 50 34.0191ZM63.0977 34.8199C66.3946 35.2312 69.4902 35.8024 72.3711 36.4878C71.5163 39.2901 70.4633 42.2172 69.1875 45.2378C68.3591 43.641 67.5012 42.0387 66.5742 40.4332C65.4508 38.4874 64.2808 36.6324 63.0977 34.8199ZM36.6875 34.8511C35.5293 36.6298 34.3897 38.4487 33.2891 40.355C32.3502 41.9812 31.4744 43.605 30.6367 45.2222C29.3719 42.2197 28.3253 39.3093 27.4766 36.523C30.336 35.8363 33.4135 35.2672 36.6875 34.8511ZM76.3281 37.5503C77.7459 37.9793 79.1151 38.427 80.3711 38.9175C84.1914 40.4097 87.2133 42.1765 89.1719 43.9839C91.1304 45.7913 91.9805 47.5149 91.9805 49.1871C91.9805 50.8592 91.1304 52.5828 89.1719 54.3902C87.2133 56.1976 84.1914 57.9645 80.3711 59.4566C78.9754 60.0017 77.4419 60.496 75.8477 60.9644C74.7104 57.4468 73.2588 53.7771 71.5312 50.0308C73.5176 45.7297 75.1222 41.5361 76.3281 37.5503ZM23.6055 37.5699C24.7976 41.5159 26.3816 45.6678 28.3398 49.9253C26.6009 53.6935 25.1422 57.3841 24 60.9214C22.4619 60.4654 20.9804 59.9845 19.6289 59.4566C15.8086 57.9645 12.7867 56.1976 10.8281 54.3902C8.86955 52.5828 8.01953 50.8592 8.01953 49.1871C8.01953 47.5149 8.86955 45.7913 10.8281 43.9839C12.7867 42.1765 15.8086 40.4097 19.6289 38.9175C20.8655 38.4345 22.2118 37.9932 23.6055 37.5699ZM50 39.9996C44.5008 39.9996 40 44.5004 40 49.9996C40 55.4987 44.5008 59.9996 50 59.9996C55.4992 59.9996 60 55.4987 60 49.9996C60 44.5004 55.4992 39.9996 50 39.9996ZM30.6836 54.73C31.525 56.3553 32.4001 57.9861 33.3438 59.6207C34.0821 60.8995 34.8361 62.1443 35.6016 63.3667C32.9156 62.9943 30.3625 62.5228 27.9648 61.9644C28.7273 59.6292 29.6395 57.2052 30.6836 54.73ZM69.2383 54.73C70.2866 57.211 71.1992 59.6389 71.9648 61.98C69.5596 62.5377 66.9986 63.0077 64.3047 63.3785C65.0801 62.1411 65.846 60.8807 66.5938 59.5855C67.5305 57.963 68.4022 56.3434 69.2383 54.73ZM26.8125 65.8472C30.4321 66.7047 34.3554 67.3634 38.5156 67.7925C41.2928 71.8093 44.1859 75.4186 47.0977 78.5738C45.7956 79.8433 44.5051 81.0347 43.2422 82.0621C39.9908 84.7069 36.9087 86.5027 34.3398 87.3355C31.771 88.1683 29.8539 88.0584 28.4258 87.2339C26.9977 86.4094 25.946 84.8047 25.3828 82.1636C24.8197 79.5226 24.8352 75.9581 25.5 71.8199C25.8016 69.9425 26.2523 67.9323 26.8125 65.8472ZM73.1211 65.8628C73.686 67.9607 74.138 69.9783 74.4414 71.8667C75.1068 76.0086 75.1234 79.5774 74.5586 82.2261C73.9938 84.8748 72.9374 86.4955 71.4961 87.3277C70.0548 88.1598 68.1192 88.2684 65.543 87.4332C62.9667 86.5979 59.8832 84.7991 56.6289 82.1519C55.3569 81.1172 54.0575 79.9161 52.7461 78.6363C55.6773 75.4687 58.5909 71.8411 61.3867 67.8003C65.5574 67.3741 69.4916 66.7193 73.1211 65.8628ZM43.7344 68.2027C45.7879 68.3146 47.8685 68.3902 50 68.3902C52.061 68.3902 54.0741 68.3191 56.0625 68.2144C54.0299 70.9567 51.9581 73.4499 49.8945 75.6949C47.8322 73.4451 45.7643 70.9475 43.7344 68.2027Z" fill="white"/>
</svg>
