<svg width="100" height="100" viewBox="0 0 100 100" fill="none"
    xmlns="http://www.w3.org/2000/svg">
    <path d="M49.9999 8.33301C27.0251 8.33301 8.33325 27.0248 8.33325 49.9997C8.33325 72.9745 27.0251 91.6663 49.9999 91.6663C72.9748 91.6663 91.6666 72.9745 91.6666 49.9997C91.6666 27.0248 72.9748 8.33301 49.9999 8.33301ZM49.9999 14.583C69.597 14.583 85.4166 30.4026 85.4166 49.9997C85.4166 65.9692 74.9102 79.4216 60.4166 83.8579V73.2012C60.4166 69.2218 58.1235 65.8093 54.8095 64.111C58.0318 63.4945 61.0238 62.2721 63.5373 60.5453C66.0508 58.8184 68.0132 56.6369 69.2616 54.1817C70.5101 51.7266 71.0086 49.0686 70.7158 46.4285C70.423 43.7883 69.3473 41.2421 67.578 39.0011C68.5021 36.1568 69.5343 31.1677 67.0816 27.2417C62.3527 27.2417 59.3013 30.4832 57.845 32.4989C55.3554 31.681 52.6912 31.2568 49.9999 31.2497C47.3069 31.2521 44.6399 31.6721 42.1467 32.4867C40.6869 30.47 37.6379 27.2417 32.9182 27.2417C30.1035 31.7472 31.8435 36.5925 32.7758 38.5698C30.8869 40.8011 29.7025 43.3655 29.3241 46.0433C28.9457 48.7211 29.3846 51.4323 30.6032 53.9446C31.8217 56.457 33.7836 58.6954 36.3207 60.4682C38.8577 62.241 41.8942 63.4951 45.17 64.1232C42.4489 65.5257 40.4109 68.0706 39.7867 71.1585H37.0483C34.3462 71.1585 33.2963 70.0606 31.8359 68.2085C30.3942 66.3564 28.844 65.1119 26.9815 64.5952C25.9774 64.489 25.3009 65.2528 26.1759 65.9298C29.1321 67.9423 29.3361 71.2362 30.5216 73.3924C31.6007 75.3341 33.8118 77.083 36.3118 77.083H39.5833V83.8579C25.0896 79.4216 14.5833 65.9692 14.5833 49.9997C14.5833 30.4026 30.4028 14.583 49.9999 14.583Z" fill="white"/>
</svg>
