<svg width="100" height="100" viewBox="0 0 100 100" fill="none"
    xmlns="http://www.w3.org/2000/svg">
    <path d="M70.8906 4.02366C70.1136 4.05091 69.3385 4.25341 68.6445 4.61741C70.4545 5.51341 71.7314 7.28303 71.9414 9.38303C71.9774 9.63503 72 9.86478 72 9.97678V89.9768C72 92.3488 70.6132 94.3817 68.6172 95.3557C69.3452 95.7537 70.158 95.9768 71 95.9768C71.746 95.9768 72.4499 95.8039 73.0859 95.5119L73.0898 95.5198C76.3058 93.8558 92.3846 85.5296 92.9766 85.1916C94.8426 84.1216 96 82.1228 96 79.9768V19.9768C96 17.9808 95.0115 16.124 93.3555 15.008C92.7155 14.574 73.1641 4.47288 73.1641 4.47288L73.1602 4.48069C72.4482 4.14569 71.6676 3.99641 70.8906 4.02366ZM66 7.97678C65.4883 7.97678 64.9759 8.17172 64.5859 8.56272C64.5859 8.56272 53.1369 21.4379 40.4609 35.6799L55.4492 47.9416L68 37.3713V9.97678C68 9.46478 67.8041 8.95272 67.4141 8.56272C67.0231 8.17172 66.5117 7.97678 66 7.97678ZM16 21.9768C15.688 21.9768 15.1077 21.9779 12.5117 23.1799C11.0817 23.8419 6.10156 26.4573 6.10156 26.4573C5.44156 26.8153 4.90916 27.3757 4.53516 28.0237C4.68716 27.9997 4.83809 27.9768 4.99609 27.9768H5C6.336 27.9768 7.15531 28.9092 7.44531 29.2112C7.44531 29.2112 63.8599 90.6648 64.5859 91.3908C64.9759 91.7808 65.4841 91.9768 65.9961 91.9768C66.5081 91.9768 67.0202 91.7808 67.4102 91.3908C67.8002 91.0008 68 90.4888 68 89.9768V63.3166C68 63.3166 19.0675 23.3238 18.6875 23.0158C17.9515 22.3478 16.994 21.9768 16 21.9768ZM4.39844 31.9768C4.17844 31.9768 4 32.1571 4 32.3791V69.5901C4 69.8041 4.17462 69.9807 4.39062 69.9807C4.50263 69.9807 4.60187 69.9298 4.67188 69.8518L16 57.2776V44.0158L4.68359 32.094C4.61159 32.022 4.50844 31.9768 4.39844 31.9768ZM24.5078 53.6057C24.5078 53.6057 7.31709 72.9058 7.12109 73.1018C6.57909 73.6438 5.83 73.9768 5 73.9768C4.844 73.9768 4.69297 73.9578 4.54297 73.9338C4.94697 74.6358 5.53944 75.2145 6.27344 75.5705L6.26562 75.5823C8.00563 76.4663 13.7479 79.3836 14.5039 79.6916C14.9799 79.8816 15.482 79.9768 16 79.9768C16.694 79.9768 17.3801 79.7975 17.9961 79.4455C18.0421 79.4195 35.0547 65.1057 35.0547 65.1057L24.5078 53.6057Z" fill="white"/>
</svg>
