<svg width="100" height="100" viewBox="0 0 100 100" fill="none"
    xmlns="http://www.w3.org/2000/svg">
    <path d="M49.8137 4.68774C43.221 4.70905 36.5304 6.17658 30.2032 9.25011C19.4 14.4986 11.1256 23.8248 7.199 35.1748C-0.994747 58.8092 11.5233 84.609 35.1592 92.8011C58.7951 100.993 84.5949 88.4753 92.7886 64.8409C96.7636 53.4816 96.0209 41.0007 90.7256 30.1913C82.8699 14.0228 66.662 4.63326 49.8137 4.68774ZM49.2705 7.79137C54.0837 7.70805 58.9932 8.45461 63.8061 10.1229C74.3701 13.7854 83.049 21.493 87.9302 31.5524C92.813 41.6117 93.4954 53.2011 89.8345 63.7667C82.2079 85.7667 58.1923 97.4202 36.1907 89.7952C14.1891 82.1702 2.53726 58.1529 10.1623 36.1514C16.1193 18.9626 32.0806 8.08897 49.2705 7.79137ZM49.4353 12.9977C48.1306 12.9789 46.826 13.0314 45.526 13.1533C44.6635 13.1814 43.9888 13.9037 44.0185 14.7646C44.0466 15.6271 44.7689 16.3019 45.6298 16.2722C45.6939 16.2706 45.761 16.2648 45.8251 16.2539C47.0001 16.132 48.1794 16.0722 49.359 16.0769C50.2137 15.9581 50.8084 15.1692 50.6896 14.316C50.5974 13.6535 50.0931 13.1227 49.4353 12.9977ZM39.1448 14.4412C38.9431 14.419 38.7319 14.4374 38.5253 14.4991C27.53 17.8444 18.79 26.2307 14.9962 37.0791C14.69 37.8853 15.0964 38.787 15.9026 39.0933C16.7089 39.3995 17.6105 38.9962 17.9168 38.1899C17.9277 38.1634 17.9364 38.1357 17.9442 38.1075L17.8893 38.1625C21.3502 28.2281 29.3553 20.543 39.4225 17.4899C40.2491 17.243 40.7161 16.3725 40.4693 15.5459C40.2841 14.926 39.7499 14.5076 39.1448 14.4412ZM70.2147 23.0471C66.4929 23.0471 63.4795 26.0635 63.4795 29.7854C63.4795 33.5073 66.4944 36.5267 70.2147 36.5267C71.1741 36.5267 72.0829 36.3185 72.9095 35.956L67.9656 30.8474C67.8625 30.7412 67.8068 30.5961 67.813 30.4476C67.8177 30.2992 67.8852 30.1585 67.9961 30.06L74.2736 24.4387C73.1423 23.5778 71.746 23.0471 70.2147 23.0471ZM75.0976 25.165L69.1466 30.4965L73.9043 35.4128C75.7371 34.2081 76.95 32.1432 76.95 29.7854C76.95 27.9916 76.2397 26.3728 75.0976 25.165ZM74.9724 28.3633C75.1831 28.3506 75.3905 28.4608 75.4912 28.6623C75.5194 28.7202 76.1866 30.0975 75.2929 31.885C75.1976 32.0772 75.0046 32.1871 74.8046 32.1871C74.7233 32.1871 74.6386 32.1682 74.5605 32.1291C74.2901 31.9948 74.1804 31.6686 74.3163 31.3967C74.9554 30.1202 74.5288 29.1836 74.5116 29.1445C74.3835 28.8742 74.4962 28.5495 74.7649 28.4182C74.8321 28.3858 74.9022 28.3675 74.9724 28.3633ZM61.5752 33.8412C60.5705 33.8845 59.4304 34.1284 58.203 34.5705C53.3202 36.3284 47.4608 42.7737 47.4608 42.7737L42.7611 48.2241L46.6186 52.0144L64.1326 34.3173C63.449 33.9563 62.5799 33.7978 61.5752 33.8412ZM65.0023 34.9947L47.3968 52.7834L49.6703 55.0204L62.8905 41.611C62.9296 41.5735 65.7808 38.7597 65.6402 36.2612C65.5105 35.7659 65.2992 35.3369 65.0023 34.9947ZM65.2678 40.433C64.5085 41.547 63.7268 42.322 63.6596 42.3861L50.4485 55.7833L52.2033 57.5106C52.3814 57.3481 52.5531 57.1971 52.7312 57.0315C62.2515 48.2034 64.2553 44.4377 65.2678 40.433ZM42.044 49.0542L37.6952 54.1018L45.6695 52.6186L42.044 49.0542ZM46.4385 53.3724L43.6919 56.2167L48.5686 55.4659L46.4385 53.3724ZM49.5391 56.4242L42.4377 57.5167L29.4189 70.9902L34.8815 76.3613L35.1562 76.3674L33.789 70.7034C33.789 70.7034 41.3211 67.2821 51.3946 58.243L49.5391 56.4242ZM80.8471 58.0019C80.2483 58.1113 79.7456 58.5666 79.605 59.1982C79.4284 59.9904 79.8859 60.7871 80.6609 61.0293L83.6761 61.835C84.5182 62.0225 85.3532 61.4931 85.5407 60.6509C85.7172 59.8587 85.2567 59.062 84.4817 58.8198L81.4696 58.0142C81.2591 57.9673 81.0467 57.9655 80.8471 58.0019ZM78.192 65.3567C77.5856 65.3034 76.9777 65.61 76.6753 66.1807C76.2909 66.9057 76.5339 67.8047 77.2307 68.2375L79.9346 69.7939C80.6877 70.2236 81.6472 69.9611 82.0769 69.208C82.5066 68.4549 82.2441 67.4954 81.491 67.0657L78.7871 65.5337C78.5965 65.4325 78.3942 65.3745 78.192 65.3567ZM73.175 71.6128C72.7755 71.6128 72.3787 71.7659 72.0733 72.0706C71.4639 72.6799 71.4639 73.6676 72.0733 74.277L74.2797 76.4864C74.8891 77.0958 75.8767 77.0958 76.4861 76.4864C77.0955 75.8771 77.0955 74.8863 76.4861 74.277L74.2797 72.0706C73.975 71.7659 73.5744 71.6128 73.175 71.6128ZM28.659 71.7776L24.414 76.1721L33.2946 76.3339L28.659 71.7776ZM66.6717 76.4651C66.4709 76.4905 66.2747 76.5556 66.0888 76.6634C65.3466 77.0978 65.0929 78.0529 65.5242 78.7966L67.0714 81.4883C67.4761 82.2508 68.4193 82.5399 69.1802 82.1352C69.9427 81.7306 70.2319 80.7874 69.8272 80.0265C69.81 79.9952 69.794 79.9616 69.7753 79.9319L68.2189 77.228C67.8931 76.6702 67.2739 76.3888 66.6717 76.4651ZM59.7442 79.5107C59.5435 79.4814 59.3363 79.49 59.1277 79.5443C59.1246 79.5459 59.1216 79.5443 59.1216 79.5443C58.2888 79.7662 57.7904 80.6249 58.0138 81.4578C58.0154 81.4609 58.0153 81.4622 58.0169 81.4669L58.8225 84.482C59.0803 85.3055 59.9568 85.7622 60.7787 85.5044C61.5537 85.2622 62.0142 84.4686 61.8377 83.6764L61.032 80.6612C60.8691 80.0355 60.3463 79.5988 59.7442 79.5107Z" fill="white"/>
</svg>
