<svg width="100" height="100" viewBox="0 0 100 100" fill="none"
    xmlns="http://www.w3.org/2000/svg">
    <path d="M41.6666 48.9038V65.6247C41.6666 67.3497 40.2666 68.7497 38.5416 68.7497C36.8166 68.7497 35.4166 67.3497 35.4166 65.6247V38.5413C35.4166 37.1684 36.3145 35.9559 37.6291 35.5518C38.9353 35.1559 40.3666 35.6538 41.1332 36.7934L41.652 37.5643L41.6666 37.4997L73.4041 84.4705C84.4249 76.9726 91.6666 64.333 91.6666 49.9997C91.6666 26.9872 73.0124 8.33301 49.9999 8.33301C26.9874 8.33301 8.33325 26.9872 8.33325 49.9997C8.33325 73.0122 26.9874 91.6663 49.9999 91.6663C56.4208 91.6663 62.4791 90.1705 67.9103 87.5768L41.6666 48.9038ZM58.3333 34.3747C58.3333 32.6497 59.7332 31.2497 61.4582 31.2497C63.1832 31.2497 64.5832 32.6497 64.5832 34.3747V61.0205L58.3333 52.0538V34.3747Z" fill="white"/>
</svg>
